<?xml version="1.0" standalone="no"?>
<!DOCTYPE svg PUBLIC "-//W3C//DTD SVG 20010904//EN"
 "http://www.w3.org/TR/2001/REC-SVG-20010904/DTD/svg10.dtd">
<svg version="1.0" xmlns="http://www.w3.org/2000/svg"
 width="128.000000pt" height="128.000000pt" viewBox="0 0 128.000000 128.000000"
 preserveAspectRatio="xMidYMid meet">
<metadata>
Created by potrace 1.11, written by Peter Selinger 2001-2013
</metadata>
<g transform="translate(0.000000,128.000000) scale(0.100000,-0.100000)"
fill="#000000" stroke="none">
<path d="M523 935 c-18 -8 -54 -35 -79 -60 -44 -43 -48 -45 -69 -31 -12 8 -41
20 -65 26 -39 11 -47 9 -105 -19 -98 -49 -143 -132 -130 -244 8 -72 27 -122
58 -156 27 -29 113 -71 148 -71 16 0 33 -10 47 -30 24 -31 45 -41 36 -15 -10
24 2 17 22 -12 15 -24 15 -26 1 -14 -9 7 -17 9 -17 3 0 -12 132 -82 175 -92
l30 -7 -52 -23 c-29 -12 -53 -26 -53 -30 0 -11 68 -70 80 -70 6 0 10 -16 10
-35 0 -43 20 -54 55 -31 23 15 27 15 51 -1 32 -21 56 -9 60 31 2 18 17 40 43
63 23 19 41 39 41 44 0 9 -20 19 -85 44 -17 6 -13 9 22 20 22 7 54 21 70 32
15 11 37 23 48 27 11 3 42 26 69 51 32 29 57 45 75 45 35 0 121 41 148 71 31
34 50 84 58 156 12 110 -30 192 -126 243 -64 34 -89 34 -155 3 -29 -13 -34
-12 -68 11 -44 29 -96 49 -191 70 -85 19 -110 20 -152 1z m39 -15 c-40 -9 -41
-10 -49 -46 -10 -44 -5 -101 12 -133 32 -63 118 -103 180 -84 44 14 45 9 3
-13 -78 -41 -189 -12 -240 62 -33 47 -38 126 -10 161 25 31 83 63 112 62 21
-1 20 -2 -8 -9z m113 -10 c21 -11 41 -18 43 -15 7 7 65 -26 91 -52 16 -15 27
-20 31 -13 9 15 78 -63 100 -114 10 -22 21 -63 25 -91 l6 -50 -22 62 c-12 34
-34 76 -51 95 l-29 33 30 -55 c23 -42 51 -141 51 -177 0 -2 -18 -3 -40 -3 -32
0 -40 4 -40 18 0 10 -7 27 -16 38 -16 20 -16 13 2 -31 9 -22 -8 -18 -51 10
-20 14 -35 20 -33 13 7 -21 67 -57 106 -64 33 -6 82 2 137 22 20 7 20 7 2 -14
-43 -48 -166 -35 -237 25 -45 39 -46 52 -14 117 16 33 17 39 6 32 -5 -3 -14
28 -21 69 -10 58 -19 81 -42 106 -16 17 -33 29 -36 25 -4 -3 1 -12 10 -19 23
-17 46 -76 53 -140 l7 -55 -46 -7 c-52 -8 -106 6 -131 34 -16 17 -16 22 -2 56
20 46 20 51 1 35 -8 -7 -15 -22 -15 -33 0 -15 -3 -18 -11 -10 -16 16 -15 102
2 118 8 8 39 18 69 23 l55 9 -35 10 c-22 7 -28 12 -15 12 12 1 38 -8 60 -19z
m-443 -84 c-39 -45 -56 -97 -46 -144 7 -36 8 -35 14 24 10 91 62 151 115 130
12 -4 11 -12 -10 -42 -26 -39 -45 -93 -45 -134 0 -14 -6 -45 -14 -70 l-13 -44
-18 27 c-23 35 -44 95 -45 127 0 46 21 103 50 132 40 39 48 35 12 -6z m807 -2
c29 -21 51 -72 51 -121 0 -27 3 -34 11 -26 19 19 1 99 -29 135 -15 17 -20 29
-12 26 8 -2 24 -20 35 -39 25 -43 27 -140 3 -184 -14 -24 -17 -26 -18 -10 0
17 -3 16 -25 -10 -27 -33 -28 -31 -25 50 1 46 -20 113 -50 155 -11 15 -20 31
-20 34 0 13 57 5 79 -10z m-866 -36 c-28 -81 -15 -165 37 -238 l21 -29 -31 10
c-17 6 -43 27 -58 47 -24 31 -27 44 -26 105 1 38 6 72 11 76 5 3 19 21 32 39
12 17 24 32 26 32 1 0 -4 -19 -12 -42z m177 -5 c-18 -20 -41 -55 -52 -77 l-19
-41 6 40 c11 66 41 102 94 114 1 1 -11 -16 -29 -36z m607 22 c12 -9 28 -38 37
-69 21 -71 20 -79 -5 -33 -11 21 -17 43 -13 49 4 6 3 8 -3 5 -9 -5 -53 43 -53
58 0 9 15 5 37 -10z m176 -7 c35 -34 47 -61 47 -112 0 -76 -31 -130 -93 -162
l-27 -15 35 67 c29 55 35 76 35 127 0 34 -7 74 -14 90 -18 33 -14 34 17 5z
m-715 -36 c1 -20 16 -59 33 -86 29 -47 29 -49 12 -69 -22 -24 -90 -56 -119
-57 -18 0 -23 8 -28 43 -9 63 13 125 67 185 28 30 32 28 35 -16z m98 -146 c3
-8 -2 -28 -10 -44 -16 -31 -83 -92 -101 -92 -5 0 -3 5 5 11 12 9 11 9 -5 3
-11 -4 -36 -9 -56 -12 -30 -3 -40 1 -58 23 -26 34 -27 49 -2 35 47 -25 141 6
183 60 26 33 36 36 44 16z m214 8 c0 -8 -70 -104 -76 -104 -2 0 5 17 16 37 11
21 20 43 20 50 0 6 6 14 13 16 18 8 27 8 27 1z m-70 -34 c-5 -8 -16 -22 -27
-31 -17 -15 -90 -59 -97 -59 -7 0 7 95 14 100 5 3 33 5 63 5 46 0 54 -2 47
-15z m96 -51 c10 -12 38 -32 61 -46 39 -22 43 -29 43 -63 0 -20 -7 -57 -15
-80 -8 -23 -13 -46 -10 -50 8 -13 -30 -40 -84 -61 -64 -24 -158 -24 -226 -1
-42 14 -53 24 -69 57 -26 54 -47 143 -35 151 16 10 29 -6 29 -37 0 -28 30 -69
50 -69 6 0 20 10 31 21 16 16 20 29 16 55 -5 29 -2 35 29 53 36 22 43 17 19
-15 -50 -66 33 -18 87 50 24 30 46 55 49 55 3 1 14 -8 25 -20z m-251 -38 c-6
-20 -42 -47 -51 -38 -3 2 8 18 23 35 29 34 38 35 28 3z m390 -181 c-10 -11
-23 -20 -28 -20 -6 0 1 10 14 23 29 28 40 25 14 -3z m-211 -130 c-6 -6 -26 -6
-54 -1 l-45 9 55 1 c35 1 51 -2 44 -9z m-1 -36 c-4 -10 -9 -11 -17 -5 -7 6
-25 9 -41 8 -15 -1 -29 3 -31 8 -3 6 15 9 45 7 38 -3 48 -7 44 -18z m-163 -1
c0 -5 23 -19 50 -32 27 -14 48 -26 47 -27 -1 -2 -20 1 -41 6 -43 10 -104 60
-73 60 9 0 17 -3 17 -7z m250 -23 c-19 -17 -42 -30 -51 -30 -10 0 -26 -3 -36
-6 -10 -3 -2 4 18 15 19 11 41 27 48 35 8 9 23 16 35 16 19 -1 17 -4 -14 -30z
m-175 -108 c-3 -3 -11 0 -18 7 -9 10 -8 11 6 5 10 -3 15 -9 12 -12z"/>
<path d="M752 458 c-28 -36 -19 -99 16 -113 28 -10 62 22 62 60 0 18 5 37 10
40 20 12 9 20 -34 23 -26 1 -48 -3 -54 -10z"/>
<path d="M596 268 c3 -4 23 -8 44 -8 21 0 41 4 44 8 3 5 -17 8 -44 8 -27 0
-47 -3 -44 -8z"/>
</g>
</svg>
